<?xml version="1.0" encoding="utf-8"?>
<!-- Generator: Adobe Illustrator 17.1.0, SVG Export Plug-In . SVG Version: 6.00 Build 0)  -->
<!DOCTYPE svg PUBLIC "-//W3C//DTD SVG 1.1//EN" "http://www.w3.org/Graphics/SVG/1.1/DTD/svg11.dtd">
<svg version="1.1" id="Layer_1" xmlns="http://www.w3.org/2000/svg" xmlns:xlink="http://www.w3.org/1999/xlink" x="0px" y="0px"
	 viewBox="0 0 17 17" enable-background="new 0 0 17 17" xml:space="preserve">
<g>
	<g>
		<g>
			<rect x="5.8" y="12.1" fill="#828282" width="4.5" height="0.9"/>
			<path fill="#828282" d="M4.9,2.2h7.1V4H13V2.2c0-0.5-0.4-0.9-0.9-0.9H4.9C4.4,1.4,4,1.8,4,2.2V4h0.9V2.2z"/>
			<rect x="5.8" y="10.3" fill="#828282" width="5.4" height="0.9"/>
			<path fill="#828282" d="M14.7,4.9H2.3c-0.5,0-0.9,0.4-0.9,0.9v5.4c0,0.5,0.4,0.9,0.9,0.9H4v2.7c0,0.5,0.4,0.9,0.9,0.9h7.1
				c0.5,0,0.9-0.4,0.9-0.9v-2.7h1.8c0.5,0,0.9-0.4,0.9-0.9V5.8C15.6,5.3,15.2,4.9,14.7,4.9z M12.1,14.7H4.9V9.4h7.1L12.1,14.7
				L12.1,14.7z M13.9,7.6c-0.5,0-0.9-0.4-0.9-0.9c0-0.5,0.4-0.9,0.9-0.9c0.5,0,0.9,0.4,0.9,0.9C14.7,7.2,14.3,7.6,13.9,7.6z"/>
		</g>
	</g>
	<g>
	</g>
	<g>
	</g>
	<g>
	</g>
	<g>
	</g>
	<g>
	</g>
	<g>
	</g>
	<g>
	</g>
	<g>
	</g>
	<g>
	</g>
	<g>
	</g>
	<g>
	</g>
	<g>
	</g>
	<g>
	</g>
	<g>
	</g>
	<g>
	</g>
</g>
</svg>
