<?xml version="1.0" encoding="utf-8"?>
<!-- Generator: Adobe Illustrator 17.1.0, SVG Export Plug-In . SVG Version: 6.00 Build 0)  -->
<!DOCTYPE svg PUBLIC "-//W3C//DTD SVG 1.1//EN" "http://www.w3.org/Graphics/SVG/1.1/DTD/svg11.dtd">
<svg version="1.1" id="Layer_1" xmlns="http://www.w3.org/2000/svg" xmlns:xlink="http://www.w3.org/1999/xlink" x="0px" y="0px"
	 viewBox="0 0 25 23" enable-background="new 0 0 25 23" xml:space="preserve">
<g>
	<g>
		<g id="c189_arrow_1_">
			<path fill="#85CDB4" d="M20.7,12.1l-3.3-3.3h2l-0.1-0.1c-1.2-2.9-4-5-7.4-5C7.5,3.6,4,7.2,4,11.5c0,4.4,3.5,7.9,7.9,7.9
				c3.2,0,6-1.7,7.2-4.5l3.2,0c0,0-2.5,7.3-10.4,7.3C5.8,22.3,1,17.5,1,11.5c0-6,4.8-10.8,10.8-10.8c5,0,9.2,3.4,10.5,8l0,0.1H24
				L20.7,12.1z"/>
		</g>
		<g id="Capa_1_1_">
		</g>
	</g>
	<g>
	</g>
	<g>
	</g>
	<g>
	</g>
	<g>
	</g>
	<g>
	</g>
	<g>
	</g>
	<g>
	</g>
	<g>
	</g>
	<g>
	</g>
	<g>
	</g>
	<g>
	</g>
	<g>
	</g>
	<g>
	</g>
	<g>
	</g>
	<g>
	</g>
</g>
</svg>
