<?xml version="1.0" encoding="utf-8"?>
<!-- Generator: Adobe Illustrator 17.1.0, SVG Export Plug-In . SVG Version: 6.00 Build 0)  -->
<!DOCTYPE svg PUBLIC "-//W3C//DTD SVG 1.1//EN" "http://www.w3.org/Graphics/SVG/1.1/DTD/svg11.dtd">
<svg version="1.1" id="Capa_1" xmlns="http://www.w3.org/2000/svg" xmlns:xlink="http://www.w3.org/1999/xlink" x="0px" y="0px"
	 viewBox="0 0 28.4 28.8" enable-background="new 0 0 28.4 28.8" xml:space="preserve">
<path fill="#828282" d="M21.3,6.1c1.1,0,2-0.9,2-2V2c0-1.1-0.9-2-2-2c-1.1,0-2,0.9-2,2v2.1C19.3,5.2,20.2,6.1,21.3,6.1z"/>
<path fill="#828282" d="M28.4,3.5h-4v1c0,1.7-1.4,3-3,3c-1.7,0-3-1.4-3-3v-1h-8.1v1c0,1.7-1.4,3-3,3s-3-1.4-3-3v-1L0,3.4v25.4h2
	h24.3l2,0L28.4,3.5z M26.4,26.8H2V10.6h24.3V26.8z"/>
<path fill="#828282" d="M7.1,6.1c1.1,0,2-0.9,2-2V2c0-1.1-0.9-2-2-2c-1.1,0-2,0.9-2,2v2.1C5.1,5.2,6,6.1,7.1,6.1z"/>
<rect x="10.1" y="12.7" fill="#828282" width="3.2" height="2.8"/>
<rect x="15.3" y="12.7" fill="#828282" width="3.2" height="2.8"/>
<rect x="20.1" y="12.7" fill="#828282" width="3.2" height="2.8"/>
<rect x="10.1" y="17.4" fill="#828282" width="3.2" height="2.8"/>
<rect x="15.3" y="17.4" fill="#828282" width="3.2" height="2.8"/>
<rect x="20.1" y="17.4" fill="#828282" width="3.2" height="2.8"/>
<rect x="10.1" y="22.2" fill="#828282" width="3.2" height="2.8"/>
<rect x="5.1" y="17.4" fill="#828282" width="3.2" height="2.8"/>
<rect x="5.1" y="22.2" fill="#828282" width="3.2" height="2.8"/>
<rect x="15.3" y="22.2" fill="#828282" width="3.2" height="2.8"/>
<rect x="20.1" y="22.2" fill="#828282" width="3.2" height="2.8"/>
</svg>
