<?xml version="1.0" encoding="utf-8"?>
<!-- Generator: Adobe Illustrator 17.1.0, SVG Export Plug-In . SVG Version: 6.00 Build 0)  -->
<!DOCTYPE svg PUBLIC "-//W3C//DTD SVG 1.1//EN" "http://www.w3.org/Graphics/SVG/1.1/DTD/svg11.dtd">
<svg version="1.1" id="Capa_1" xmlns="http://www.w3.org/2000/svg" xmlns:xlink="http://www.w3.org/1999/xlink" x="0px" y="0px"
	 viewBox="0 0 15 15" enable-background="new 0 0 15 15" xml:space="preserve">
<g>
	<path fill="#2ABE7A" d="M11.7,11.2c-2-0.7-2.6-1.4-2.6-2.7c0-0.8,0.6-0.5,0.9-2c0.1-0.6,0.6,0,0.7-1.4c0-0.6-0.3-0.7-0.3-0.7
		s0.1-0.8,0.2-1.5C10.7,2.1,10.2,0,7.5,0S4.3,2.1,4.3,2.9c0.1,0.6,0.2,1.5,0.2,1.5S4.2,4.5,4.2,5C4.3,6.4,4.9,5.8,5,6.4
		c0.3,1.5,0.9,1.2,0.9,2c0,1.4-0.6,2-2.6,2.7c-2,0.8-3.3,1.5-3.3,2S0,15,0,15h7.5H15c0,0,0-1.2,0-1.8S13.7,12,11.7,11.2z"/>
</g>
</svg>
