<?xml version="1.0" encoding="utf-8"?>
<!-- Generator: Adobe Illustrator 17.1.0, SVG Export Plug-In . SVG Version: 6.00 Build 0)  -->
<!DOCTYPE svg PUBLIC "-//W3C//DTD SVG 1.1//EN" "http://www.w3.org/Graphics/SVG/1.1/DTD/svg11.dtd">
<svg version="1.1" id="Layer_1" xmlns="http://www.w3.org/2000/svg" xmlns:xlink="http://www.w3.org/1999/xlink" x="0px" y="0px"
	 viewBox="0 0 21.5 15" enable-background="new 0 0 21.5 15" xml:space="preserve">
<path fill="#474747" d="M18.2,5l-6.8-4c-0.2-0.1-0.5-0.1-0.7,0L3.8,5C3.6,5.1,3.5,5.3,3.5,5.5v7.9c0,0.4,0.3,0.7,0.7,0.7h13.7
	c0.4,0,0.7-0.3,0.7-0.7V5.5C18.5,5.3,18.4,5.1,18.2,5z M11,2.3l5.6,3.3L11,8.9L5.4,5.6L11,2.3z M4.8,12.8V6.3l6,3.4
	c0.1,0,0.1,0.1,0.2,0.1s0.2,0,0.2-0.1l6-3.4v6.5H4.8z"/>
</svg>
