<?xml version="1.0" encoding="utf-8"?>
<!-- Generator: Adobe Illustrator 17.1.0, SVG Export Plug-In . SVG Version: 6.00 Build 0)  -->
<!DOCTYPE svg PUBLIC "-//W3C//DTD SVG 1.1//EN" "http://www.w3.org/Graphics/SVG/1.1/DTD/svg11.dtd">
<svg version="1.1" id="Layer_1" xmlns="http://www.w3.org/2000/svg" xmlns:xlink="http://www.w3.org/1999/xlink" x="0px" y="0px"
	 viewBox="-35 -9.5 217.2 59" enable-background="new -35 -9.5 217.2 59" xml:space="preserve">
<g>
	<path fill="#2ABE7A" d="M-35-9.5h38c0.1,19.7,0,39.3,0,59H-35V-9.5"/>
	<path fill="#2ABE7A" d="M-14.1,21.7c1.1,0,3.3,0,4.4,0c0.2,2.6,1.5,6.1-0.6,8.1c-1,0.1-2.9,0.3-3.8,0.4
		C-14.1,27.4-14.1,24.5-14.1,21.7z"/>
	<rect x="-35" y="-9.5" fill="#2ABE7A" width="38.1" height="59"/>
	<rect x="5.4" y="-9.5" fill="#2ABE7A" width="32.5" height="59"/>
	<rect x="40.3" y="-9.5" fill="#2ABE7A" width="32.5" height="59"/>
	<rect x="74.9" y="-9.5" fill="#2ABE7A" width="32.5" height="59"/>
	<rect x="74.9" y="-9.5" fill="#2ABE7A" width="32.5" height="59"/>
	<rect x="109.6" y="-9.5" fill="#2ABE7A" width="32.5" height="59"/>
	<rect x="144.1" y="-9.5" fill="#2ABE7A" width="38.1" height="59"/>
	<g>
		<g>
			<path fill="#FFFFFF" d="M-20.9,41.1V21.5h7.3c4,0,6.1,2.9,6.1,6.3s-2,6.3-6.1,6.3H-17v7.1H-20.9z M-11.6,27.7
				c0-1.7-1-2.8-2.5-2.8H-17v5.6h2.8C-12.6,30.5-11.6,29.5-11.6,27.7z"/>
		</g>
		<g>
			<path fill="#FFFFFF" d="M24.9,40.7L24,37.2h-6l-0.9,3.5h-4.3L18.6,21h4.8l5.8,19.7H24.9z M21,25.1l-2.2,8.6h4.5L21,25.1z"/>
		</g>
		<g>
			<path fill="#FFFFFF" d="M47.7,38c1.6-0.3,2.6-0.8,3.1-6.4l0.9-10.1h11.6v16.2H65v7.1h-4v-3.6h-9.3v3.6h-4V38z M52.7,37.7h6.7
				V24.9h-4l-0.6,6.7C54.5,34.5,53.8,36.4,52.7,37.7z"/>
		</g>
		<g>
			<path fill="#FFFFFF" d="M94.8,41.1v-8.4h-6.5v8.4h-4V21.5h4v7.8h6.5v-7.8h4v19.7H94.8z"/>
		</g>
		<g>
			<path fill="#FFFFFF" d="M118.2,41.1V21.5h4v11.7l6.4-11.7h4v19.7h-4V29L122,41.1H118.2z"/>
		</g>
		<g>
			<path fill="#FFFFFF" d="M166.4,41.1l-4.5-7.7l-1.4,2.2v5.5h-4V21.5h4v8.9l5.5-8.9h4.6l-6.3,9.3l6.7,10.4H166.4z"/>
		</g>
	</g>
</g>
</svg>
