<?xml version="1.0" encoding="utf-8"?>
<!-- Generator: Adobe Illustrator 17.1.0, SVG Export Plug-In . SVG Version: 6.00 Build 0)  -->
<!DOCTYPE svg PUBLIC "-//W3C//DTD SVG 1.1//EN" "http://www.w3.org/Graphics/SVG/1.1/DTD/svg11.dtd">
<svg version="1.1" id="Layer_1" xmlns="http://www.w3.org/2000/svg" xmlns:xlink="http://www.w3.org/1999/xlink" x="0px" y="0px"
	 viewBox="0 0 147.2 40" enable-background="new 0 0 147.2 40" xml:space="preserve">
<path fill="#FFFFFF" d="M0,0h25.8c0.1,13.3,0,26.7,0,40H0V0"/>
<path fill="#FFFFFF" d="M14.2,21.2c0.8,0,2.3,0,3,0c0.1,1.8,1,4.1-0.4,5.5c-0.7,0.1-1.9,0.2-2.6,0.3C14.2,25,14.2,23.1,14.2,21.2z"
	/>
<rect x="0" fill="#FFFFFF" width="25.8" height="40"/>
<rect x="27.4" fill="#FFFFFF" width="22" height="40"/>
<rect x="51" fill="#FFFFFF" width="22" height="40"/>
<rect x="74.5" fill="#FFFFFF" width="22" height="40"/>
<rect x="74.5" fill="#FFFFFF" width="22" height="40"/>
<rect x="98" fill="#FFFFFF" width="22" height="40"/>
<rect x="121.4" fill="#FFFFFF" width="25.8" height="40"/>
<g>
	<g>
		<path fill="#4E4D4D" d="M9.5,34.3V21h4.9c2.7,0,4.1,2,4.1,4.3s-1.4,4.3-4.1,4.3h-2.2v4.8H9.5z M15.8,25.3c0-1.2-0.7-1.9-1.7-1.9
			h-1.9v3.8h1.9C15.1,27.2,15.8,26.4,15.8,25.3z"/>
	</g>
	<g>
		<path fill="#4E4D4D" d="M40.6,34L40,31.6h-4.1L35.3,34h-2.9l4-13.3h3.2l4,13.3H40.6z M38,23.5l-1.5,5.8h3L38,23.5z"/>
	</g>
	<g>
		<path fill="#4E4D4D" d="M56.1,32.2c1.1-0.2,1.7-0.5,2.1-4.3l0.6-6.9h7.9v11h1.1v4.8h-2.7v-2.5h-6.3v2.5h-2.7V32.2z M59.4,32H64
			v-8.6h-2.7l-0.4,4.5C60.6,29.9,60.1,31.2,59.4,32z"/>
	</g>
	<g>
		<path fill="#4E4D4D" d="M87.9,34.3v-5.7h-4.4v5.7h-2.7V21h2.7v5.3h4.4V21h2.7v13.3H87.9z"/>
	</g>
	<g>
		<path fill="#4E4D4D" d="M103.8,34.3V21h2.7v7.9l4.4-7.9h2.7v13.3h-2.7v-8.2l-4.5,8.2H103.8z"/>
	</g>
	<g>
		<path fill="#4E4D4D" d="M136.5,34.3l-3.1-5.2l-0.9,1.5v3.7h-2.7V21h2.7v6.1l3.8-6.1h3.1l-4.3,6.3l4.6,7.1H136.5z"/>
	</g>
</g>
</svg>
