<?xml version="1.0" encoding="utf-8"?>
<!-- Generator: Adobe Illustrator 18.0.0, SVG Export Plug-In . SVG Version: 6.00 Build 0)  -->
<!DOCTYPE svg PUBLIC "-//W3C//DTD SVG 1.1//EN" "http://www.w3.org/Graphics/SVG/1.1/DTD/svg11.dtd">
<svg version="1.1" id="Слой_1" xmlns="http://www.w3.org/2000/svg" xmlns:xlink="http://www.w3.org/1999/xlink" x="0px" y="0px"
	 viewBox="283 188 13 24" enable-background="new 283 188 13 24" xml:space="preserve">
<g>
	<title>background</title>
	<g id="canvasGrid" display="none">
		<rect x="253.6" y="134.7" display="inline" fill="none" width="326.9" height="265.7"/>
	</g>
</g>
<g>
	<title>Layer 1</title>
	<g id="svg_7" transform="rotate(-180 290 200)">
		<g id="svg_4" transform="matrix(5.55556 0 0 5.55556 0 0)">
			<path id="svg_6" opacity="0.89" fill="#626769" enable-background="new    " d="M51.1,34.1c0.1-0.1,0.2-0.2,0.3-0.2
				c0.7,0.7,1.4,1.3,2,2v0.2c-0.7,0.7-1.3,1.4-2,2h-0.2c0,0,0,0-0.1,0v-0.2c0.6-0.7,1.2-1.3,1.9-1.9C52.4,35.4,51.7,34.8,51.1,34.1
				L51.1,34.1z"/>
		</g>
	</g>
</g>
<line fill="none" x1="326.1" y1="256.9" x2="396.8" y2="186.2"/>
<line fill="none" x1="391" y1="322" x2="461.7" y2="251.3"/>
</svg>
