<?xml version="1.0" encoding="utf-8"?>
<!-- Generator: Adobe Illustrator 18.0.0, SVG Export Plug-In . SVG Version: 6.00 Build 0)  -->
<!DOCTYPE svg PUBLIC "-//W3C//DTD SVG 1.1//EN" "http://www.w3.org/Graphics/SVG/1.1/DTD/svg11.dtd">
<svg version="1.1" id="Layer_1" xmlns="http://www.w3.org/2000/svg" xmlns:xlink="http://www.w3.org/1999/xlink" x="0px" y="0px"
	 viewBox="211.5 210.1 217 50.4" enable-background="new 211.5 210.1 217 50.4" xml:space="preserve">
<g>
	<path fill="#2ABE7A" d="M211.5,210.4h38c0.1,16.7,0,33.4,0,50.1h-38V210.4"/>
	<path fill="#2ABE7A" d="M232.4,236.9c1.1,0,3.3,0,4.4,0c0.2,2.2,1.5,5.2-0.6,6.9c-1,0.1-2.9,0.3-3.8,0.3
		C232.4,241.7,232.4,239.3,232.4,236.9z"/>
	<rect x="211.5" y="210.4" fill="#2ABE7A" width="38.1" height="50.1"/>
	<rect x="251.9" y="210.4" fill="#2ABE7A" width="32.5" height="50.1"/>
	<rect x="286.7" y="210.4" fill="#2ABE7A" width="32.5" height="50.1"/>
	<rect x="321.3" y="210.4" fill="#2ABE7A" width="32.5" height="50.1"/>
	<rect x="321.3" y="210.4" fill="#2ABE7A" width="32.5" height="50.1"/>
	<rect x="356" y="210.4" fill="#2ABE7A" width="32.5" height="50.1"/>
	<rect x="390.4" y="210.4" fill="#2ABE7A" width="38.1" height="50.1"/>
	<g>
		<g>
			<path fill="#FFFFFF" d="M225.6,253.4v-16.6h7.3c4,0,6.1,2.5,6.1,5.4s-2,5.4-6.1,5.4h-3.4v6L225.6,253.4L225.6,253.4z M234.9,242
				c0-1.4-1-2.4-2.5-2.4h-2.9v4.8h2.8C233.9,244.4,234.9,243.5,234.9,242z"/>
		</g>
		<g>
			<path fill="#FFFFFF" d="M271.3,253l-0.9-3h-6l-0.9,3h-4.3l5.8-16.7h4.8l5.8,16.7H271.3z M267.4,239.8l-2.2,7.3h4.5L267.4,239.8z"
				/>
		</g>
		<g>
			<path fill="#FFFFFF" d="M294.1,250.7c1.6-0.3,2.6-0.7,3.1-5.4l0.9-8.6h11.6v13.8h1.7v6h-4v-3.1h-9.3v3.1h-4V250.7z M299.1,250.5
				h6.7v-10.9h-4l-0.6,5.7C300.9,247.8,300.2,249.4,299.1,250.5z"/>
		</g>
		<g>
			<path fill="#FFFFFF" d="M341.2,253.4v-7.1h-6.5v7.1h-4v-16.6h4v6.6h6.5v-6.6h4v16.7L341.2,253.4L341.2,253.4z"/>
		</g>
		<g>
			<path fill="#FFFFFF" d="M364.6,253.4v-16.6h4v9.9l6.4-9.9h4v16.7h-4v-10.4l-6.6,10.3H364.6z"/>
		</g>
		<g>
			<path fill="#FFFFFF" d="M412.7,253.4l-4.5-6.5l-1.4,1.9v4.7h-4v-16.6h4v7.6l5.5-7.6h4.6l-6.3,7.9l6.7,8.8L412.7,253.4
				L412.7,253.4z"/>
		</g>
	</g>
</g>
</svg>
